<svg id="Layer_1" data-name="Layer 1" xmlns="http://www.w3.org/2000/svg" viewBox="0 0 434.79 409.51"><title>logo</title><path d="M463.39,251.44a219.68,219.68,0,0,1-2.53,33.36,122.8,122.8,0,0,0-76.65,134.45,217,217,0,0,1-63.1,36.26,122.61,122.61,0,0,0-150.22,0,217,217,0,0,1-63.1-36.26,123.26,123.26,0,0,0,1.64-20.1A122.61,122.61,0,0,0,31.14,284.8a219.68,219.68,0,0,1-2.53-33.36A216.44,216.44,0,0,1,30,226.88a122.7,122.7,0,0,0,79.43-114.8,122.77,122.77,0,0,0-3.06-27.28,216.52,216.52,0,0,1,60.81-36,122.1,122.1,0,0,0,73.25,24.27A122,122,0,0,0,317.27,46a216.62,216.62,0,0,1,66.22,37,121.16,121.16,0,0,0-.92,15.11,122.66,122.66,0,0,0,77.26,114A217.86,217.86,0,0,1,463.39,251.44Z" transform="translate(-28.61 -46)" fill="#f7f7f7"/><path d="M323,256.41a54.9,54.9,0,0,1-.86,9.69,43.92,43.92,0,0,0-9.54,8.2h0v0L304,289.22v0h0a43.91,43.91,0,0,0-2.1,10.11,53.36,53.36,0,0,1-10.32,6.25l-12.92-22.54a28.45,28.45,0,0,0-9.44-55.2,27.93,27.93,0,0,0-18.31,6.81l-12.78-22.29a53.34,53.34,0,0,1,11.93-6.46,43.37,43.37,0,0,0,36.83-.6,53.58,53.58,0,0,1,15,8.13,43.81,43.81,0,0,0,2.1,10.11v0l8.54,14.89v0h0a43.92,43.92,0,0,0,9.54,8.2A54.87,54.87,0,0,1,323,256.41Z" transform="translate(-28.61 -46)" fill="#5e5e5e"/><path d="M176.3,228" transform="translate(-28.61 -46)" fill="#fff"/><text transform="translate(179.93 274.67) scale(0.99 1)" font-size="14.72" fill="#5e5e5e" font-family="Roboto-Bold, Roboto" font-weight="700">Dian <tspan x="33.27" y="0" letter-spacing="-0.03em">Y</tspan><tspan x="41.92" y="0" letter-spacing="0em">arpan J</tspan><tspan x="91.49" y="0" letter-spacing="-0.01em">ay</tspan><tspan x="106.56" y="0">a Mandiri</tspan></text><text transform="translate(179.93 309.16) scale(0.99 1)" font-size="39.34" font-family="Roboto-Bold, Roboto" font-weight="700">Company</text><path d="M276.7,252.24q-69.62-46.92-139.07-94.15a38.66,38.66,0,0,1-6.77-6.19,7.75,7.75,0,0,0-8.36-2.62.23.23,0,0,0-.17.22v88.55a.22.22,0,0,0,.16.21h0a.23.23,0,0,1,0,.42,7.39,7.39,0,1,0,10.34,7.91.22.22,0,0,0-.22-.25h-1.33a.23.23,0,0,0-.22.18,5.61,5.61,0,1,1-5.7-6.76.21.21,0,0,0,.21-.22v-.46a.22.22,0,0,1,.21-.22c1.58-.07,1.71-1.36,1.71-4.94q0-32.1,0-64.19v-4.47a.22.22,0,0,1,.36-.17c1,.86,1.76,1.41,2.42,2.06,33,32.11,65.88,64.31,99,96.25,3.27,3.16,4.77,6.14,4.4,11.08-.26,3.47-1.24,7.6,2.59,10,.5.31.24,2.34.29,4a.22.22,0,0,1-.22.23c-6.58,0-13,.16-19.32-.08-3-.11-4.31,1-4,4.66.19,2,.05,4.05,0,6.37a.23.23,0,0,1-.21.22c-1.46.1-3.53.07-2.4,3.57a.24.24,0,0,0,.22.16h57.74a.22.22,0,0,0,.22-.22c0-4.34.07-8.68-.1-13,0-.59-1.32-1.5-2.08-1.59a43.75,43.75,0,0,0-5.64-.08.23.23,0,0,1-.23-.22v-4.18a.23.23,0,0,1,.23-.23c4.66,0,9.34,0,14,0,4.23,0,5.18-1.16,5.2-6.22,0-6.26-.09-12.52,0-18.78C280.18,255.79,279.18,253.92,276.7,252.24ZM151.56,183.52c-.17-1.31-.31-2.4-.49-3.7a.22.22,0,0,1,.18-.25l3.14-.7a.22.22,0,0,1,.27.18c.21,1.35.41,2.59.63,4a.23.23,0,0,1-.19.26l-3.29.37A.24.24,0,0,1,151.56,183.52Zm6.82,6.56c-.19-1.3-.35-2.41-.56-4a.22.22,0,0,1,.2-.26l3.4-.27a.22.22,0,0,1,.24.21c.08,1.37.15,2.47.22,3.76a.21.21,0,0,1-.19.23l-3.06.47A.22.22,0,0,1,158.38,190.08Zm5.79,6.06-.51-3.95a.23.23,0,0,1,.2-.25l3.27-.3a.22.22,0,0,1,.25.19c.13,1.32.25,2.41.39,3.79a.22.22,0,0,1-.19.24l-3.16.47A.22.22,0,0,1,164.17,196.14Zm6.76,6.55c-.15-1.44-.25-2.55-.39-4a.23.23,0,0,1,.18-.24l3.24-.58a.22.22,0,0,1,.26.2c.12,1.37.22,2.56.34,3.91a.22.22,0,0,1-.18.24l-3.19.63A.22.22,0,0,1,170.93,202.69Zm6.29,6.13c-.11-1.39-.19-2.5-.3-3.87a.23.23,0,0,1,.21-.24l3.25-.26a.23.23,0,0,1,.24.21c.1,1.38.18,2.48.28,3.84a.23.23,0,0,1-.21.24l-3.23.29A.22.22,0,0,1,177.22,208.82Zm6.24,6.12c-.18-1.3-.34-2.4-.56-3.92a.22.22,0,0,1,.2-.25l3.3-.28a.23.23,0,0,1,.24.2c.17,1.39.3,2.49.47,3.83a.24.24,0,0,1-.2.25l-3.2.36A.23.23,0,0,1,183.46,214.94Zm6.72,6.66c-.15-1.58-.26-2.77-.38-4a.23.23,0,0,1,.19-.25l3.28-.45a.22.22,0,0,1,.25.21c.11,1.42.19,2.53.28,3.78a.23.23,0,0,1-.17.24l-3.18.72A.22.22,0,0,1,190.18,221.6Zm6.4,6.12c-.17-1.26-.32-2.36-.53-3.93a.21.21,0,0,1,.2-.25l3.39-.23a.23.23,0,0,1,.24.21c.08,1.4.14,2.5.21,3.79a.22.22,0,0,1-.19.23l-3.07.38A.24.24,0,0,1,196.58,227.72Zm6,5.88c-.13-1.4-.23-2.51-.35-3.86a.21.21,0,0,1,.19-.24l3.19-.37a.22.22,0,0,1,.25.2c.15,1.38.28,2.53.43,3.91a.22.22,0,0,1-.2.24l-3.27.32A.22.22,0,0,1,202.55,233.6Zm9.24,6-2.87.23a.22.22,0,0,1-.24-.19c-.15-1.29-.29-2.46-.45-3.79a.23.23,0,0,1,.19-.25l3.32-.48a.23.23,0,0,1,.26.22v4A.22.22,0,0,1,211.79,239.6Zm3.62,6.71c-.09-1.58-.16-2.77-.23-4a.23.23,0,0,1,.19-.23l3.17-.51a.23.23,0,0,1,.26.2c.11,1.38.21,2.56.32,3.85a.23.23,0,0,1-.17.24l-3.27.69A.23.23,0,0,1,215.41,246.31Zm6.4,6.26c-.11-1.42-.2-2.61-.31-4.06a.23.23,0,0,1,.21-.24l3.28-.19a.21.21,0,0,1,.23.21c.08,1.4.14,2.49.2,3.7a.22.22,0,0,1-.18.23l-3.17.55A.22.22,0,0,1,221.81,252.57Zm6.11,5.84c-.19-1.34-.36-2.51-.56-3.88a.23.23,0,0,1,.19-.25l3.23-.51a.21.21,0,0,1,.25.19l.55,4a.23.23,0,0,1-.19.26l-3.22.43A.22.22,0,0,1,227.92,258.41Zm2.79-8.89c-20.09-20-40.46-39.66-60.74-59.43l-12-11.73a.24.24,0,0,1,0-.28l.12-.2a.23.23,0,0,1,.31-.07c7.06,4.78,14.08,9.66,21.21,14.29a100.09,100.09,0,0,1,18.6,15.42c11.5,12.24,23.36,24,35.06,36,2.68,2.73,5.33,5.49,8.38,8.63a.23.23,0,0,1-.14.38C237.24,252.93,234.06,252.84,230.71,249.52Zm12.55,10.26c-.08,3.35.07,6.71-.07,10.06a3.35,3.35,0,0,1-1.27,2.44c-3.45,1.42-5.08,0-5.09-4.24v-3c0-.27,0-.54,0-.8,0-1.48,0-2.95,0-4.41-.16-3,1.63-2.63,3.19-2.61S243.34,256.73,243.26,259.78Zm14.28,19.72h-3.2a.22.22,0,0,1-.22-.22V261.42a.22.22,0,0,0-.22-.22c-2,0-3.46-.1-5,0-2.72.23-3.33-1.14-2.52-3.73a.23.23,0,0,1,.22-.15h10.91a.22.22,0,0,1,.22.22v21.72A.22.22,0,0,1,257.54,279.5Zm-8.63-26.89a7.08,7.08,0,0,1-4.48-2c-12.43-12.51-24.75-25.16-37.09-37.78-.76-.78-1.46-1.62-2.19-2.44a.24.24,0,0,1,0-.28l.18-.25a.22.22,0,0,1,.31-.06l61.94,41.94a.2.2,0,0,1,.09.21c0,.19-.05.38-.08.57a.22.22,0,0,1-.22.19C261.21,252.71,255.05,252.83,248.91,252.61Zm27.32,26.75a.21.21,0,0,1-.21.14c-4.87,0-9.74.05-14.61-.09-.44,0-.86-1.06-1.29-1.74a.23.23,0,0,1,0-.27c.54-.54,1.08-1.35,1.63-1.37,4.32-.13,8.64-.16,13,0,.67,0,1.31,1.14,1.95,1.83a.22.22,0,0,1,.05.23Z" transform="translate(-28.61 -46)" fill="#ffbc00"/></svg>